<?xml version="1.0" encoding="UTF-8" standalone="no"?>
<!DOCTYPE svg PUBLIC "-//W3C//DTD SVG 1.1//EN"
 "http://www.w3.org/Graphics/SVG/1.1/DTD/svg11.dtd">
<!-- Generated by graphviz version 8.1.0 (0)
 -->
<!-- Pages: 1 -->
<svg width="752pt" height="251pt"
 viewBox="0.00 0.00 752.25 250.80" xmlns="http://www.w3.org/2000/svg" xmlns:xlink="http://www.w3.org/1999/xlink">
<g id="graph0" class="graph" transform="scale(1 1) rotate(0) translate(4 246.8)">
<polygon fill="#0d1117" stroke="none" points="-4,4 -4,-246.8 748.25,-246.8 748.25,4 -4,4"/>
<g id="clust1" class="cluster">
<title>clusternode_Set(1)</title>
<g id="a_clust1"><a xlink:title="PhysicsSet">
<path fill="#ffffff" fill-opacity="0.266667" stroke="#ffffff" stroke-width="2" stroke-opacity="0.313725" d="M216.5,-111.8C216.5,-111.8 710.12,-111.8 710.12,-111.8 716.12,-111.8 722.12,-117.8 722.12,-123.8 722.12,-123.8 722.12,-186.8 722.12,-186.8 722.12,-192.8 716.12,-198.8 710.12,-198.8 710.12,-198.8 216.5,-198.8 216.5,-198.8 210.5,-198.8 204.5,-192.8 204.5,-186.8 204.5,-186.8 204.5,-123.8 204.5,-123.8 204.5,-117.8 210.5,-111.8 216.5,-111.8"/>
<text text-anchor="middle" x="463.31" y="-181.5" font-family="Helvetica,sans-Serif" font-size="14.00" fill="#ffffff">PhysicsSet</text>
</a>
</g>
</g>
<!-- set_marker_node_Set(1) -->
<!-- node_System(4) -->
<g id="node6" class="node">
<title>node_System(4)</title>
<g id="a_node6"><a xlink:title="azalea_client::movement::send_position">
<polygon fill="lightgrey" stroke="black" points="552,-103.8 461,-103.8 461,-67.8 552,-67.8 552,-103.8"/>
<text text-anchor="middle" x="506.5" y="-80.75" font-family="Times,serif" font-size="14.00">send_position</text>
</a>
</g>
</g>
<!-- set_marker_node_Set(1)&#45;&gt;node_System(4) -->
<g id="edge3" class="edge">
<title>set_marker_node_Set(1)&#45;&gt;node_System(4)</title>
<g id="a_edge3"><a xlink:title="PhysicsSet → send_position">
<path fill="none" stroke="#00b0cc" stroke-width="2" d="M335.33,-111.8C369.11,-106.64 413.06,-99.92 447.84,-94.61"/>
<polygon fill="#00b0cc" stroke="#00b0cc" stroke-width="2" points="449.3,-97.62 458.66,-92.65 448.24,-90.7 449.3,-97.62"/>
</a>
</g>
</g>
<!-- node_System(7) -->
<g id="node9" class="node">
<title>node_System(7)</title>
<g id="a_node9"><a xlink:title="azalea_client::attack::update_attack_strength_scale">
<polygon fill="lightgrey" stroke="black" points="594,-242.8 419,-242.8 419,-206.8 594,-206.8 594,-242.8"/>
<text text-anchor="middle" x="506.5" y="-219.75" font-family="Times,serif" font-size="14.00">update_attack_strength_scale</text>
</a>
</g>
</g>
<!-- set_marker_node_Set(1)&#45;&gt;node_System(7) -->
<g id="edge6" class="edge">
<title>set_marker_node_Set(1)&#45;&gt;node_System(7)</title>
<g id="a_edge6"><a xlink:title="PhysicsSet → update_attack_strength_scale">
<path fill="none" stroke="#0090cc" stroke-width="2" d="M283.05,-119.78C284.96,-119.22 346.62,-101.35 418.35,-198.8"/>
<polygon fill="#0090cc" stroke="#0090cc" stroke-width="2" points="414.85,-200.16 424.59,-204.31 419.56,-194.99 414.85,-200.16"/>
</a>
</g>
</g>
<!-- node_System(9) -->
<g id="node11" class="node">
<title>node_System(9)</title>
<g id="a_node11"><a xlink:title="azalea::bot::stop_jumping">
<polygon fill="lightgrey" stroke="black" points="552,-56.8 461,-56.8 461,-20.8 552,-20.8 552,-56.8"/>
<text text-anchor="middle" x="506.5" y="-33.75" font-family="Times,serif" font-size="14.00">stop_jumping</text>
</a>
</g>
</g>
<!-- set_marker_node_Set(1)&#45;&gt;node_System(9) -->
<g id="edge8" class="edge">
<title>set_marker_node_Set(1)&#45;&gt;node_System(9)</title>
<g id="a_edge8"><a xlink:title="PhysicsSet → stop_jumping">
<path fill="none" stroke="#663699" stroke-width="2" d="M299.6,-111.8C324.92,-99.81 374.91,-76.97 419,-61.8 428.4,-58.56 438.51,-55.5 448.38,-52.74"/>
<polygon fill="#663699" stroke="#663699" stroke-width="2" points="449.95,-55.4 458.68,-49.41 448.12,-48.64 449.95,-55.4"/>
</a>
</g>
</g>
<!-- node_System(10) -->
<g id="node12" class="node">
<title>node_System(10)</title>
<g id="a_node12"><a xlink:title="azalea::pathfinder::tick_execute_path">
<polygon fill="lightgrey" stroke="black" points="744.25,-62.8 630,-62.8 630,-26.8 744.25,-26.8 744.25,-62.8"/>
<text text-anchor="middle" x="687.12" y="-39.75" font-family="Times,serif" font-size="14.00">tick_execute_path</text>
</a>
</g>
</g>
<!-- set_marker_node_Set(1)&#45;&gt;node_System(10) -->
<g id="edge9" class="edge">
<title>set_marker_node_Set(1)&#45;&gt;node_System(10)</title>
<g id="a_edge9"><a xlink:title="PhysicsSet → tick_execute_path">
<path fill="none" stroke="#3363bb" stroke-width="2" d="M289.72,-111.8C307.91,-90.86 360.67,-34.69 419,-14.8 492.61,10.31 517.18,-2.6 594,-14.8 604.75,-16.5 615.94,-19.26 626.68,-22.43"/>
<polygon fill="#3363bb" stroke="#3363bb" stroke-width="2" points="626.42,-26.65 637.01,-26.31 628.52,-19.97 626.42,-26.65"/>
</a>
</g>
</g>
<!-- node_System(0) -->
<g id="node2" class="node">
<title>node_System(0)</title>
<g id="a_node2"><a xlink:title="azalea_physics::ai_step">
<polygon fill="#eff1f3" stroke="#b4bec7" points="536.25,-166.8 476.75,-166.8 476.75,-130.8 536.25,-130.8 536.25,-166.8"/>
<text text-anchor="middle" x="506.5" y="-143.37" font-family="Helvetica,sans-Serif" font-size="14.00" fill="#15191d">ai_step</text>
</a>
</g>
</g>
<!-- node_System(1) -->
<g id="node3" class="node">
<title>node_System(1)</title>
<g id="a_node3"><a xlink:title="azalea_physics::travel">
<polygon fill="#eff1f3" stroke="#b4bec7" points="714.12,-166.8 660.12,-166.8 660.12,-130.8 714.12,-130.8 714.12,-166.8"/>
<text text-anchor="middle" x="687.12" y="-143.37" font-family="Helvetica,sans-Serif" font-size="14.00" fill="#15191d">travel</text>
</a>
</g>
</g>
<!-- node_System(0)&#45;&gt;node_System(1) -->
<g id="edge1" class="edge">
<title>node_System(0)&#45;&gt;node_System(1)</title>
<g id="a_edge1"><a xlink:title="ai_step → travel">
<path fill="none" stroke="#eede00" stroke-width="2" d="M536.6,-148.8C566.57,-148.8 613.49,-148.8 646.77,-148.8"/>
<polygon fill="#eede00" stroke="#eede00" stroke-width="2" points="646.66,-152.3 656.66,-148.8 646.66,-145.3 646.66,-152.3"/>
</a>
</g>
</g>
<!-- node_System(3) -->
<g id="node4" class="node">
<title>node_System(3)</title>
<g id="a_node4"><a xlink:title="azalea_client::movement::local_player_ai_step">
<polygon fill="#eff1f3" stroke="#b4bec7" points="351.5,-166.8 212.5,-166.8 212.5,-130.8 351.5,-130.8 351.5,-166.8"/>
<text text-anchor="middle" x="282" y="-143.37" font-family="Helvetica,sans-Serif" font-size="14.00" fill="#15191d">local_player_ai_step</text>
</a>
</g>
</g>
<!-- node_System(3)&#45;&gt;node_System(0) -->
<g id="edge2" class="edge">
<title>node_System(3)&#45;&gt;node_System(0)</title>
<g id="a_edge2"><a xlink:title="local_player_ai_step → SystemTypeSet(ai_step&quot;)">
<path fill="none" stroke="#881877" stroke-width="2" d="M351.88,-148.8C388.51,-148.8 432.34,-148.8 463.79,-148.8"/>
<polygon fill="#881877" stroke="#881877" stroke-width="2" points="463.46,-152.3 473.46,-148.8 463.46,-145.3 463.46,-152.3"/>
</a>
</g>
</g>
<!-- node_System(3)&#45;&gt;node_System(4) -->
<g id="edge4" class="edge">
<title>node_System(3)&#45;&gt;node_System(4)</title>
<g id="a_edge4"><a xlink:title="local_player_ai_step → send_position">
<path fill="none" stroke="#aa3a55" stroke-width="2" d="M351.8,-134.81C362.34,-132.14 373.03,-129.12 383,-125.8 399.61,-120.25 402.52,-115.71 419,-109.8 428.39,-106.43 438.48,-103.25 448.35,-100.36"/>
<polygon fill="#aa3a55" stroke="#aa3a55" stroke-width="2" points="449.99,-102.97 458.66,-96.89 448.08,-96.24 449.99,-102.97"/>
</a>
</g>
</g>
<!-- node_System(2) -->
<g id="node5" class="node">
<title>node_System(2)</title>
<g id="a_node5"><a xlink:title="azalea_client::events::tick_listener">
<polygon fill="lightgrey" stroke="black" points="113.88,-184.8 31.12,-184.8 31.12,-148.8 113.88,-148.8 113.88,-184.8"/>
<text text-anchor="middle" x="72.5" y="-161.75" font-family="Times,serif" font-size="14.00">tick_listener</text>
</a>
</g>
</g>
<!-- node_System(4)&#45;&gt;node_System(10) -->
<g id="edge10" class="edge">
<title>node_System(4)&#45;&gt;node_System(10)</title>
<g id="a_edge10"><a xlink:title="SystemTypeSet(send_position&quot;) → tick_execute_path">
<path fill="none" stroke="#22c2bb" stroke-width="2" d="M552.11,-75.56C571.72,-71.05 595.2,-65.67 616.99,-60.66"/>
<polygon fill="#22c2bb" stroke="#22c2bb" stroke-width="2" points="618.62,-63.42 627.59,-57.77 617.06,-56.6 618.62,-63.42"/>
</a>
</g>
</g>
<!-- node_System(5) -->
<g id="node7" class="node">
<title>node_System(5)</title>
<g id="a_node7"><a xlink:title="azalea_client::mining::continue_mining_block">
<polygon fill="lightgrey" stroke="black" points="145,-137.8 0,-137.8 0,-101.8 145,-101.8 145,-137.8"/>
<text text-anchor="middle" x="72.5" y="-114.75" font-family="Times,serif" font-size="14.00">continue_mining_block</text>
</a>
</g>
</g>
<!-- node_System(5)&#45;&gt;set_marker_node_Set(1) -->
<g id="edge5" class="edge">
<title>node_System(5)&#45;&gt;set_marker_node_Set(1)</title>
<g id="a_edge5"><a xlink:title="continue_mining_block → PhysicsSet">
<path fill="none" stroke="#44d488" stroke-width="2" d="M145.49,-119.8C160.39,-119.8 176.25,-119.8 191.68,-119.8"/>
<polygon fill="#44d488" stroke="#44d488" stroke-width="2" points="191.5,-123.3 201.5,-119.8 191.5,-116.3 191.5,-123.3"/>
</a>
</g>
</g>
<!-- node_System(6) -->
<g id="node8" class="node">
<title>node_System(6)</title>
<g id="a_node8"><a xlink:title="azalea_client::attack::increment_ticks_since_last_attack">
<polygon fill="lightgrey" stroke="black" points="383,-242.8 181,-242.8 181,-206.8 383,-206.8 383,-242.8"/>
<text text-anchor="middle" x="282" y="-219.75" font-family="Times,serif" font-size="14.00">increment_ticks_since_last_attack</text>
</a>
</g>
</g>
<!-- node_System(6)&#45;&gt;node_System(7) -->
<g id="edge7" class="edge">
<title>node_System(6)&#45;&gt;node_System(7)</title>
<g id="a_edge7"><a xlink:title="increment_ticks_since_last_attack → update_attack_strength_scale">
<path fill="none" stroke="#ee9e44" stroke-width="2" d="M383.18,-224.8C390.7,-224.8 398.29,-224.8 405.8,-224.8"/>
<polygon fill="#ee9e44" stroke="#ee9e44" stroke-width="2" points="405.79,-228.3 415.79,-224.8 405.79,-221.3 405.79,-228.3"/>
</a>
</g>
</g>
<!-- node_System(8) -->
<g id="node10" class="node">
<title>node_System(8)</title>
<g id="a_node10"><a xlink:title="azalea_client::client::send_tick_broadcast">
<polygon fill="lightgrey" stroke="black" points="135.62,-231.8 9.38,-231.8 9.38,-195.8 135.62,-195.8 135.62,-231.8"/>
<text text-anchor="middle" x="72.5" y="-208.75" font-family="Times,serif" font-size="14.00">send_tick_broadcast</text>
</a>
</g>
</g>
</g>
</svg>
